<?xml version="1.0" encoding="UTF-8"?>
<!-- Generated by jsxcad -->
<!DOCTYPE svg PUBLIC "-//W3C//DTD SVG 1.1 Tiny//EN" "http://www.w3.org/Graphics/SVG/1.1/DTD/svg11-tiny.dtd">
<svg baseProfile="tiny" height="20 mm" width="39.99368 mm" viewBox="0 0 39.99368 20" version="1.1" stroke="black" stroke-width=".1" fill="none" xmlns="http://www.w3.org/2000/svg">
<path d="M0 0 L39.99368 0 L39.99368 7.5 L39.99368 12.5 L39.99368 20 L39.96842 20 L39.94316 20 L39.91787 20 L39.89251 20 L39.86706 20 L39.84147 20 L39.81573 20 L39.78978 20 L39.76361 20 L39.73716 20 L39.71041 20 L39.68331 20 L39.65582 20 L39.62789 20 L39.59949 20 L39.57056 20 L39.54104 20 L39.51089 20 L39.48004 20 L39.44843 20 L39.41598 20 L39.38262 20 L39.34827 20 L39.31284 20 L39.27623 20 L39.23833 20 L39.19901 20 L39.15816 20 L39.11561 20 L39.07121 20 L39.02477 20 L38.97608 20 L38.92492 20 L38.87101 20 L38.81406 20 L38.75372 20 L38.6896 20 L38.62124 20 L38.54812 20 L38.4696 20 L38.38497 20 L38.29336 20 L38.19373 20 L38.08485 20 L37.9652 20 L37.83293 20 L37.68572 20 L37.52069 20 L37.33412 20 L37.12124 20 L36.8757 20 L36.58898 20 L36.24931 20 L35.83995 20 L35.33629 20 L34.70062 20 L33.87198 20 L32.74511 20 L31.12119 20 L28.57414 20 L23.99621 20 L13.32561 20 L0 20 L0 14 L0 12.5 L0 10 L0 7.5 L0 6 z"/>
<path d="M31.99368 7.5 L26.99368 7.5 L21.99368 7.5 L21.99368 10 L21.99368 12.5 L26.99368 12.5 L31.99368 12.5 L31.99368 10 z"/>
</svg>