<?xml version="1.0" encoding="UTF-8"?>
<!-- Generated by jsxcad -->
<!DOCTYPE svg PUBLIC "-//W3C//DTD SVG 1.1 Tiny//EN" "http://www.w3.org/Graphics/SVG/1.1/DTD/svg11-tiny.dtd">
<svg viewBox="-250 -250 500 500" width="500" height="500" xmlns="http://www.w3.org/2000/svg"><path d="M101.49433918419776,61.895576352628694L-12.578144980678797,143.01904006946933L123.9868106871872,112.60056974702643zM101.49433918419776,61.895576352628694L-41.49259215018826,95.66505413743259L-12.578144980678797,143.01904006946933z" style="fill:rgb(127,37,217)"/><path d="M-149.9565054863416,-81.96930021666309L-16.356392200163278,138.16623498836773L-12.578144980678797,143.01904006946933z" style="fill:rgb(23,55,145)"/><path d="M127.97876176466686,79.7075055031155L21.340740901423477,-137.12039576551263L127.47831124046772,105.92526616276528z" style="fill:rgb(246,148,167)"/><path d="M21.340740901423477,-137.12039576551263L123.9868106871872,112.60056974702643L127.47831124046772,105.92526616276528z" style="fill:rgb(231,109,199)"/><path d="M-138.60686473619742,-68.4568757467651L-41.49259215018826,95.66505413743259L-29.97357031641834,110.27208267973812z" style="fill:rgb(23,55,145)"/><path d="M-3.4515416123767855,120.43773904958744L-138.60686473619742,-68.4568757467651L-29.97357031641834,110.27208267973812z" style="fill:rgb(57,36,182)"/><path d="M-149.9565054863416,-81.96930021666309L-153.68394430680817,-86.40705070096656L-16.356392200163278,138.16623498836773z" style="fill:rgb(23,55,145)"/><path d="M16.399184816634204,-129.93523989991073L90.13397257314605,82.42421925810108L101.49433918419776,61.895576352628694z" style="fill:rgb(231,109,199)"/><path d="M29.766463087902657,118.80125173640175L-109.5926110385808,-60.7756003238616L-3.4515416123767855,120.43773904958744z" style="fill:rgb(102,32,209)"/><path d="M90.13397257314605,82.42421925810108L-31.637717991751032,-82.60251107161723L63.227153098633025,105.24684043164682z" style="fill:rgb(197,72,218)"/><path d="M63.227153098633025,105.24684043164682L-71.43257665083439,-65.63766620046212L29.766463087902657,118.80125173640175z" style="fill:rgb(152,45,222)"/><path d="M127.97876176466686,79.7075055031155L24.81428808533368,-163.44772889782377L21.340740901423477,-137.12039576551263z" style="fill:rgb(246,148,167)"/><path d="M-138.60686473619742,-68.4568757467651L-149.9565054863416,-81.96930021666309L-41.49259215018826,95.66505413743259z" style="fill:rgb(23,55,145)"/><path d="M21.340740901423477,-137.12039576551263L16.399184816634204,-129.93523989991073L123.9868106871872,112.60056974702643z" style="fill:rgb(231,109,199)"/><path d="M-31.637717991751032,-82.60251107161723L-80.18215120997704,-180.2459240763018L-113.00354598156665,-161.357552562199zM-31.637717991751032,-82.60251107161723L-44.95090595021856,-191.09853040411096L-80.18215120997704,-180.2459240763018zM-31.637717991751032,-82.60251107161723L-113.00354598156665,-161.357552562199L-138.74253839884912,-137.05666256059388z" style="fill:rgb(83,212,212)"/><path d="M-3.4515416123767855,120.43773904958744L-109.5926110385808,-60.7756003238616L-138.60686473619742,-68.4568757467651z" style="fill:rgb(57,36,182)"/><path d="M-31.637717991751032,-82.60251107161723L-12.345531265846159,-192.13953213030737L-44.95090595021856,-191.09853040411096zM-31.637717991751032,-82.60251107161723L-138.74253839884912,-137.05666256059388L-153.31752467212436,-110.7262321983422z" style="fill:rgb(83,212,212)"/><path d="M16.399184816634204,-129.93523989991073L1.483922032883143,-108.2480449151131L90.13397257314605,82.42421925810108z" style="fill:rgb(231,109,199)"/><path d="M29.766463087902657,118.80125173640175L-71.43257665083439,-65.63766620046212L-109.5926110385808,-60.7756003238616z" style="fill:rgb(102,32,209)"/><path d="M-31.637717991751032,-82.60251107161723L12.484372756590451,-182.66716476155867L-12.345531265846159,-192.13953213030737z" style="fill:rgb(83,212,212)"/><path d="M90.13397257314605,82.42421925810108L1.483922032883143,-108.2480449151131L-31.637717991751032,-82.60251107161723z" style="fill:rgb(197,72,218)"/><path d="M63.227153098633025,105.24684043164682L-31.637717991751032,-82.60251107161723L-71.43257665083439,-65.63766620046212z" style="fill:rgb(152,45,222)"/><path d="M-31.637717991751032,-82.60251107161723L-153.31752467212436,-110.7262321983422L-153.68394430680817,-86.40705070096656zM-31.637717991751032,-82.60251107161723L24.81428808533368,-163.44772889782377L12.484372756590451,-182.66716476155867zM-31.637717991751032,-82.60251107161723L-153.68394430680817,-86.40705070096656L-138.60686473619742,-68.4568757467651zM-31.637717991751032,-82.60251107161723L21.340740901423477,-137.12039576551263L24.81428808533368,-163.44772889782377zM-31.637717991751032,-82.60251107161723L-138.60686473619742,-68.4568757467651L-109.5926110385808,-60.7756003238616zM-31.637717991751032,-82.60251107161723L1.483922032883143,-108.2480449151131L21.340740901423477,-137.12039576551263zM-31.637717991751032,-82.60251107161723L-109.5926110385808,-60.7756003238616L-71.43257665083439,-65.63766620046212z" style="fill:rgb(83,212,212)"/></svg>
